<svg width="100" height="100" viewBox="0 0 100 100" fill="none" xmlns="http://www.w3.org/2000/svg">
<path d="M70.2595 76.9637C65.5669 76.9637 61.752 73.1481 61.752 68.4549C61.752 63.7616 65.5669 59.946 70.2595 59.946C74.9521 59.946 78.7671 63.7616 78.7671 68.4549C78.7671 73.1481 74.9521 76.9637 70.2595 76.9637ZM70.2595 63.0401C67.2774 63.0401 64.8456 65.4649 64.8456 68.4549C64.8456 71.4449 67.27 73.8696 70.2595 73.8696C73.2491 73.8696 75.6735 71.4449 75.6735 68.4549C75.6735 65.4649 73.2491 63.0401 70.2595 63.0401Z" fill="#2C54F5"/>
<path d="M39.4139 76.9637C34.7213 76.9637 30.9062 73.1481 30.9062 68.4549C30.9062 63.7616 34.7213 59.946 39.4139 59.946C44.1065 59.946 47.9215 63.7616 47.9215 68.4549C47.9215 73.1481 44.1065 76.9637 39.4139 76.9637ZM39.4139 63.0401C36.4318 63.0401 34 65.4649 34 68.4549C34 71.4449 36.4243 73.8696 39.4139 73.8696C42.4035 73.8696 44.8279 71.4449 44.8279 68.4549C44.8279 65.4649 42.4035 63.0401 39.4139 63.0401Z" fill="#2C54F5"/>
<path d="M31.4046 37.253H22.2128C21.3576 37.253 20.666 36.5612 20.666 35.7059C20.666 34.8505 21.3576 34.1589 22.2128 34.1589H31.4046C32.2598 34.1589 32.9514 34.8505 32.9514 35.7059C32.9514 36.5612 32.2598 37.253 31.4046 37.253Z" fill="#2C54F5"/>
<path d="M26.1398 44.5579H19.3202C18.465 44.5579 17.7734 43.8661 17.7734 43.0107C17.7734 42.1554 18.465 41.4636 19.3202 41.4636H26.1398C26.995 41.4636 27.6866 42.1554 27.6866 43.0107C27.6866 43.8661 26.995 44.5579 26.1398 44.5579Z" fill="#2C54F5"/>
<path d="M78.1998 51.3557C77.5826 51.3557 76.995 50.9838 76.757 50.3739L71.4696 36.919C71.1944 36.2198 70.5325 35.7735 69.7888 35.7735H65.9589C65.1037 35.7735 64.4121 35.0817 64.4121 34.2264C64.4121 33.371 65.1037 32.6794 65.9589 32.6794H69.7888C71.8191 32.6794 73.6113 33.8992 74.355 35.7958L79.6425 49.2508C79.9548 50.0466 79.5607 50.9467 78.765 51.2591C78.5791 51.3335 78.3857 51.3632 78.1998 51.3632V51.3557Z" fill="#2C54F5"/>
<path d="M62.7685 70.0025H46.9208C46.0656 70.0025 45.374 69.3107 45.374 68.4554C45.374 67.6 46.0656 66.9084 46.9208 66.9084H62.7685C63.6238 66.9084 64.3153 67.6 64.3153 68.4554C64.3153 69.3107 63.6238 70.0025 62.7685 70.0025Z" fill="#2C54F5"/>
<path d="M84.2179 68.9985H77.1307C76.2755 68.9985 75.5839 68.3069 75.5839 67.4516C75.5839 66.5962 76.2755 65.9044 77.1307 65.9044H82.6636V56.1831L77.5843 51.356H65.9607C65.1055 51.356 64.4139 50.6642 64.4139 49.8089V32.3227C64.4139 31.3261 63.6033 30.5152 62.6067 30.5152H26.1446C25.2893 30.5152 24.5977 29.8236 24.5977 28.9683C24.5977 28.1129 25.2893 27.4211 26.1446 27.4211H62.6067C65.3137 27.4211 67.515 29.6226 67.515 32.33V48.2694H78.2091C78.6032 48.2694 78.9899 48.4254 79.2725 48.6932L85.2813 54.4056C85.5862 54.6957 85.7647 55.1048 85.7647 55.5287V67.4665C85.7647 68.3218 85.0731 69.0134 84.2179 69.0134V68.9985Z" fill="#2C54F5"/>
<path d="M32.3675 70.0029H22.2089C21.3537 70.0029 20.6621 69.3112 20.6621 68.4558V50.5308C20.6621 49.6754 21.3537 48.9836 22.2089 48.9836C23.0641 48.9836 23.7557 49.6754 23.7557 50.5308V66.9089H32.3601C33.2153 66.9089 33.9069 67.6005 33.9069 68.4558C33.9069 69.3112 33.2153 70.0029 32.3601 70.0029H32.3675Z" fill="#2C54F5"/>
</svg>
