<svg width="100" height="100" viewBox="0 0 100 100" fill="none" xmlns="http://www.w3.org/2000/svg">
<g clip-path="url(#clip0_2035_7363)">
<path d="M49.9922 62.4838C56.8699 62.4838 62.4454 56.9083 62.4454 50.0306C62.4454 43.1529 56.8699 37.5774 49.9922 37.5774C43.1145 37.5774 37.5391 43.1529 37.5391 50.0306C37.5391 56.9083 43.1145 62.4838 49.9922 62.4838Z" stroke="#2C54F5" stroke-width="3.28891" stroke-linecap="round" stroke-linejoin="round"/>
<path d="M61.1949 68.4124C59.3825 69.524 57.4413 70.3537 55.4275 70.8611V78.9968H45.2621V71.0383C42.9664 70.547 40.7511 69.6448 38.7132 68.3802L32.97 74.1234L25.7847 66.9383L31.5603 61.1628C30.3279 59.1571 29.4658 56.9741 28.9745 54.7348H21V44.5693H29.1597C29.6753 42.5716 30.4808 40.6384 31.6005 38.834L25.8411 33.0746L33.0262 25.8895L38.7857 31.6489C40.8559 30.3681 43.0952 29.4901 45.4151 28.9907V21H55.5805V29.2404C57.5057 29.7559 59.3746 30.5373 61.1145 31.6166L66.8899 25.8411L74.075 33.0263L68.3318 38.7696C69.4354 40.5417 70.257 42.4508 70.7726 44.4243H78.9968V54.5898H71.0384C70.5471 56.9177 69.669 59.1732 68.3802 61.2514L74.1073 66.9786L66.9222 74.1637L61.1949 68.4365V68.4124Z" stroke="#2C54F5" stroke-width="3.28891" stroke-linecap="round" stroke-linejoin="round"/>
</g>
<defs>
<clipPath id="clip0_2035_7363">
<rect width="100" height="100" rx="50" fill="white"/>
</clipPath>
</defs>
</svg>
