<svg width="100" height="100" viewBox="0 0 100 100" fill="none" xmlns="http://www.w3.org/2000/svg">
<path d="M77.6305 69.6477H28.9728C28.1541 69.6477 27.4922 68.9857 27.4922 68.1669V61.2392C27.4922 60.4204 28.1541 59.7582 28.9728 59.7582C29.7915 59.7582 30.4536 60.4204 30.4536 61.2392V66.6859H76.1497V40.5558H70.9388C70.1201 40.5558 69.458 39.8935 69.458 39.0748C69.458 38.256 70.1201 37.5938 70.9388 37.5938H77.6305C78.4491 37.5938 79.1112 38.256 79.1112 39.0748V68.174C79.1112 68.9928 78.4491 69.6549 77.6305 69.6549V69.6477Z" fill="#2C54F5"/>
<path d="M70.391 62.4073H22.723C21.9043 62.4073 21.2422 61.7451 21.2422 60.9263V32.8168C21.2422 31.998 21.9043 31.3359 22.723 31.3359H70.391C71.2097 31.3359 71.8716 31.998 71.8716 32.8168V60.9263C71.8716 61.7451 71.2097 62.4073 70.391 62.4073ZM24.2036 59.4383H68.9102V34.2978H24.2036V59.4383Z" fill="#2C54F5"/>
<path d="M47.3034 53.6812L47.4743 55.6463C47.4956 55.981 47.0758 56.2586 46.5632 56.2799C46.0578 56.3013 45.6378 55.981 45.6591 55.6463L45.8086 53.7026C43.8651 53.5104 42.8116 52.6274 42.2848 52.2216C42.0926 52.0721 42.007 51.9439 42.1779 51.6733L42.9183 50.4487C43.0891 50.1711 43.381 50.1711 43.5945 50.3206C44.3776 50.9116 45.2177 51.4811 46.4635 51.4811C47.453 51.4811 48.1721 50.8688 48.1721 50.0642C48.1721 49.1173 47.3676 48.441 45.7658 47.8286C43.9505 47.1095 42.1351 45.9489 42.1351 43.6919C42.1351 42.1327 43.2102 40.3313 45.83 40.0821L45.6591 38.0957C45.6378 37.7611 46.0578 37.4833 46.5632 37.462C47.0687 37.4406 47.4885 37.754 47.4743 38.0957L47.3034 40.1034C48.8696 40.317 50.03 41.0717 50.3646 41.328C50.5782 41.4348 50.621 41.7482 50.4929 41.9404L49.7097 43.0583C49.5602 43.2933 49.2684 43.4356 49.0121 43.2932C48.1863 42.7876 47.4104 42.2822 46.371 42.2822C45.3316 42.2822 44.7265 42.8304 44.7265 43.5496C44.7265 44.4182 45.4241 45.0304 46.9618 45.6C48.8411 46.3405 51.0125 47.4798 51.0125 49.9718C51.0125 51.7233 49.5957 53.3964 47.2963 53.6883L47.3034 53.6812Z" fill="#2C54F5"/>
</svg>
